<svg xmlns="http://www.w3.org/2000/svg" width="1600" height="900" viewBox="0 0 1600 900">
<defs>
  <!-- context-stroke: every arrowhead inherits the colour of its own line, so a
       red line can never end in a grey head. The ids are kept as aliases. -->
  <marker id="arrow" viewBox="0 0 10 10" refX="9" refY="5" markerWidth="6" markerHeight="6" orient="auto-start-reverse">
    <path d="M 0 1 L 9 5 L 0 9 z" fill="context-stroke"/>
  </marker>
  <marker id="arrowg" viewBox="0 0 10 10" refX="9" refY="5" markerWidth="6" markerHeight="6" orient="auto-start-reverse">
    <path d="M 0 1 L 9 5 L 0 9 z" fill="context-stroke"/>
  </marker>
  <marker id="arrowa" viewBox="0 0 10 10" refX="9" refY="5" markerWidth="6" markerHeight="6" orient="auto-start-reverse">
    <path d="M 0 1 L 9 5 L 0 9 z" fill="context-stroke"/>
  </marker>
  <marker id="arrowv" viewBox="0 0 10 10" refX="9" refY="5" markerWidth="6" markerHeight="6" orient="auto-start-reverse">
    <path d="M 0 1 L 9 5 L 0 9 z" fill="context-stroke"/>
  </marker>
  <marker id="arrowr" viewBox="0 0 10 10" refX="9" refY="5" markerWidth="6" markerHeight="6" orient="auto-start-reverse">
    <path d="M 0 1 L 9 5 L 0 9 z" fill="context-stroke"/>
  </marker>
  <filter id="soft" x="-8%" y="-14%" width="116%" height="132%">
    <feDropShadow dx="0" dy="2" stdDeviation="3" flood-color="#0f1e3d" flood-opacity="0.07"/>
  </filter>
</defs>
<rect width="1600" height="900" fill="#ffffff"/>
<rect x="0" y="0" width="1600" height="6" fill="#0f1e3d"/>
<text x="800.0" y="56" font-family="Helvetica Neue, Helvetica, Arial, sans-serif" font-size="33" font-weight="bold" fill="#0f1e3d" text-anchor="middle" letter-spacing="-0.4">Same goal, one switch</text><text x="800.0" y="82" font-family="Helvetica Neue, Helvetica, Arial, sans-serif" font-size="13.5" font-weight="normal" fill="#9aa3b2" text-anchor="middle">PRIVATE_AWS = false  |  true   —   same source, same destination, same data</text><rect x="80" y="140" width="1440" height="250" rx="14" fill="#fdf6ec" stroke="#d97706" stroke-width="1.5" opacity="0.95"/><path d="M 112 174 v-3.2 a4 4 0 0 1 8 0" fill="none" stroke="#d97706" stroke-width="1.9"/><rect x="109.5" y="174" width="13" height="10" rx="2" fill="#d97706"/><text x="136" y="181" font-family="Helvetica Neue, Helvetica, Arial, sans-serif" font-size="15" font-weight="bold" fill="#d97706" text-anchor="start">PUBLIC   ·   PRIVATE_AWS = false</text><text x="1490" y="181" font-family="Helvetica Neue, Helvetica, Arial, sans-serif" font-size="11.5" font-weight="bold" fill="#d97706" text-anchor="end">2 nodes · 1 hop</text><rect x="180" y="232" width="240" height="116" rx="10" fill="#ffffff" stroke="#ff3621" stroke-width="2" filter="url(#soft)"/><text x="300.0" y="288.0" font-family="Helvetica Neue, Helvetica, Arial, sans-serif" font-size="14" font-weight="bold" fill="#1f2a44" text-anchor="middle">Databricks Serverless</text><text x="300.0" y="306.0" font-family="Helvetica Neue, Helvetica, Arial, sans-serif" font-size="11" font-weight="normal" fill="#6b7280" text-anchor="middle">Unity Catalog · Federation</text><line x1="430" y1="290" x2="600" y2="290" stroke="#d97706" stroke-width="2" marker-end="url(#arrowa)"/><g transform="translate(660,290) scale(1.1)"><path d="M -22 10 C -34 10 -34 -6 -21 -7 C -20 -21 0 -25 6 -13 C 15 -21 30 -12 24 1 C 31 3 30 10 23 10 Z" fill="#eef2f7" stroke="#d97706" stroke-width="1.8" stroke-linejoin="round"/></g><line x1="715" y1="290" x2="900" y2="290" stroke="#d97706" stroke-width="2" marker-end="url(#arrowa)"/><text x="665" y="246" font-family="Helvetica Neue, Helvetica, Arial, sans-serif" font-size="11.5" font-weight="normal" fill="#d97706" text-anchor="middle">TLS 5432 · public endpoint</text><rect x="915" y="224" width="320" height="132" rx="10" fill="#ffffff" stroke="#ec7211" stroke-width="2" filter="url(#soft)"/><text x="1075.0" y="288.0" font-family="Helvetica Neue, Helvetica, Arial, sans-serif" font-size="14" font-weight="bold" fill="#1f2a44" text-anchor="middle">Amazon RDS PostgreSQL</text><text x="1075.0" y="306.0" font-family="Helvetica Neue, Helvetica, Arial, sans-serif" font-size="11" font-weight="normal" fill="#6b7280" text-anchor="middle">publicly_accessible = true</text><path d="M 929 243 a 13.0 7 0 0 1 26 0 v 8 a 13.0 7 0 0 1 -26 0 Z" fill="#ffffff" stroke="#ec7211" stroke-width="2"/><path d="M 929 243 a 13.0 7 0 0 0 26 0" fill="none" stroke="#ec7211" stroke-width="2"/><path d="M 1213 242 v-3.2 a4 4 0 0 1 8 0" fill="none" stroke="#d97706" stroke-width="1.9"/><rect x="1210.5" y="242" width="13" height="10" rx="2" fill="#d97706"/><rect x="80" y="430" width="1440" height="330" rx="14" fill="#f1faf4" stroke="#16a34a" stroke-width="1.5" opacity="0.95"/><path d="M 112 464 v-3.2 a4 4 0 0 1 8 0 v3.2" fill="none" stroke="#16a34a" stroke-width="1.9"/><rect x="109.5" y="464" width="13" height="10" rx="2" fill="#16a34a"/><text x="136" y="471" font-family="Helvetica Neue, Helvetica, Arial, sans-serif" font-size="15" font-weight="bold" fill="#16a34a" text-anchor="start">PRIVATE   ·   PRIVATE_AWS = true</text><text x="1490" y="471" font-family="Helvetica Neue, Helvetica, Arial, sans-serif" font-size="11.5" font-weight="bold" fill="#16a34a" text-anchor="end">6 nodes · 0 public hops</text><rect x="104" y="552" width="178" height="104" rx="10" fill="#ffffff" stroke="#ff3621" stroke-width="2" filter="url(#soft)"/><text x="193.0" y="602.0" font-family="Helvetica Neue, Helvetica, Arial, sans-serif" font-size="13" font-weight="bold" fill="#1f2a44" text-anchor="middle">Databricks</text><text x="193.0" y="620.0" font-family="Helvetica Neue, Helvetica, Arial, sans-serif" font-size="11" font-weight="normal" fill="#6b7280" text-anchor="middle">Serverless · NCC</text><line x1="288" y1="604" x2="316" y2="604" stroke="#16a34a" stroke-width="2" marker-end="url(#arrowg)"/><rect x="322" y="500" width="1180" height="210" rx="14" fill="#fdf0e4" stroke="#ec7211" stroke-width="1.5" opacity="0.95"/><text x="338" y="522" font-family="Helvetica Neue, Helvetica, Arial, sans-serif" font-size="12" font-weight="bold" fill="#ec7211" text-anchor="start">Customer VPC · private subnets · no Internet Gateway</text><rect x="340" y="552" width="198" height="104" rx="10" fill="#ffffff" stroke="#ec7211" stroke-width="2" filter="url(#soft)"/><text x="439.0" y="602.0" font-family="Helvetica Neue, Helvetica, Arial, sans-serif" font-size="13" font-weight="bold" fill="#1f2a44" text-anchor="middle">AWS PrivateLink</text><text x="439.0" y="620.0" font-family="Helvetica Neue, Helvetica, Arial, sans-serif" font-size="11" font-weight="normal" fill="#6b7280" text-anchor="middle">VPC Endpoint Service</text><rect x="570" y="552" width="198" height="104" rx="10" fill="#ffffff" stroke="#ec7211" stroke-width="2" filter="url(#soft)"/><text x="669.0" y="602.0" font-family="Helvetica Neue, Helvetica, Arial, sans-serif" font-size="13" font-weight="bold" fill="#1f2a44" text-anchor="middle">Internal NLB</text><text x="669.0" y="620.0" font-family="Helvetica Neue, Helvetica, Arial, sans-serif" font-size="11" font-weight="normal" fill="#6b7280" text-anchor="middle">TCP 5432</text><rect x="800" y="552" width="198" height="104" rx="10" fill="#ffffff" stroke="#ec7211" stroke-width="2" filter="url(#soft)"/><text x="899.0" y="602.0" font-family="Helvetica Neue, Helvetica, Arial, sans-serif" font-size="13" font-weight="bold" fill="#1f2a44" text-anchor="middle">ECS Fargate</text><text x="899.0" y="620.0" font-family="Helvetica Neue, Helvetica, Arial, sans-serif" font-size="11" font-weight="normal" fill="#6b7280" text-anchor="middle">pgbouncer</text><rect x="1030" y="552" width="198" height="104" rx="10" fill="#ffffff" stroke="#ec7211" stroke-width="2" filter="url(#soft)"/><text x="1129.0" y="602.0" font-family="Helvetica Neue, Helvetica, Arial, sans-serif" font-size="13" font-weight="bold" fill="#1f2a44" text-anchor="middle">RDS Proxy</text><text x="1129.0" y="620.0" font-family="Helvetica Neue, Helvetica, Arial, sans-serif" font-size="11" font-weight="normal" fill="#6b7280" text-anchor="middle">require_tls</text><line x1="538" y1="604" x2="570" y2="604" stroke="#16a34a" stroke-width="2" marker-end="url(#arrowg)"/><circle cx="554" cy="604" r="11" fill="#ffffff"/><path d="M 550 602 v-3.2 a4 4 0 0 1 8 0 v3.2" fill="none" stroke="#16a34a" stroke-width="1.9"/><rect x="547.5" y="602" width="13" height="10" rx="2" fill="#16a34a"/><line x1="768" y1="604" x2="800" y2="604" stroke="#16a34a" stroke-width="2" marker-end="url(#arrowg)"/><circle cx="784" cy="604" r="11" fill="#ffffff"/><path d="M 780 602 v-3.2 a4 4 0 0 1 8 0 v3.2" fill="none" stroke="#16a34a" stroke-width="1.9"/><rect x="777.5" y="602" width="13" height="10" rx="2" fill="#16a34a"/><line x1="998" y1="604" x2="1030" y2="604" stroke="#16a34a" stroke-width="2" marker-end="url(#arrowg)"/><circle cx="1014" cy="604" r="11" fill="#ffffff"/><path d="M 1010 602 v-3.2 a4 4 0 0 1 8 0 v3.2" fill="none" stroke="#16a34a" stroke-width="1.9"/><rect x="1007.5" y="602" width="13" height="10" rx="2" fill="#16a34a"/><line x1="1228" y1="604" x2="1258" y2="604" stroke="#16a34a" stroke-width="2" marker-end="url(#arrowg)"/><circle cx="1243" cy="604" r="11" fill="#ffffff"/><path d="M 1239 602 v-3.2 a4 4 0 0 1 8 0 v3.2" fill="none" stroke="#16a34a" stroke-width="1.9"/><rect x="1236.5" y="602" width="13" height="10" rx="2" fill="#16a34a"/><rect x="1264" y="540" width="226" height="128" rx="10" fill="#ffffff" stroke="#ec7211" stroke-width="2" filter="url(#soft)"/><text x="1377.0" y="602.0" font-family="Helvetica Neue, Helvetica, Arial, sans-serif" font-size="14" font-weight="bold" fill="#1f2a44" text-anchor="middle">RDS PostgreSQL</text><text x="1377.0" y="620.0" font-family="Helvetica Neue, Helvetica, Arial, sans-serif" font-size="11" font-weight="normal" fill="#6b7280" text-anchor="middle">publicly_accessible = FALSE</text><path d="M 1278 559 a 13.0 7 0 0 1 26 0 v 8 a 13.0 7 0 0 1 -26 0 Z" fill="#ffffff" stroke="#ec7211" stroke-width="2"/><path d="M 1278 559 a 13.0 7 0 0 0 26 0" fill="none" stroke="#ec7211" stroke-width="2"/><path d="M 1468 558 v-3.2 a4 4 0 0 1 8 0 v3.2" fill="none" stroke="#16a34a" stroke-width="1.9"/><rect x="1465.5" y="558" width="13" height="10" rx="2" fill="#16a34a"/><rect x="420.0" y="846" width="760" height="34" rx="17" fill="#0f1e3d"/><text x="800.0" y="868" font-family="Helvetica Neue, Helvetica, Arial, sans-serif" font-size="12.5" font-weight="bold" fill="#ffffff" text-anchor="middle">I did not rewrite the platform. I flipped one flag.</text>
</svg>
