<svg xmlns="http://www.w3.org/2000/svg" width="1600" height="900" viewBox="0 0 1600 900">
<defs>
  <!-- context-stroke: every arrowhead inherits the colour of its own line, so a
       red line can never end in a grey head. The ids are kept as aliases. -->
  <marker id="arrow" viewBox="0 0 10 10" refX="9" refY="5" markerWidth="6" markerHeight="6" orient="auto-start-reverse">
    <path d="M 0 1 L 9 5 L 0 9 z" fill="context-stroke"/>
  </marker>
  <marker id="arrowg" viewBox="0 0 10 10" refX="9" refY="5" markerWidth="6" markerHeight="6" orient="auto-start-reverse">
    <path d="M 0 1 L 9 5 L 0 9 z" fill="context-stroke"/>
  </marker>
  <marker id="arrowa" viewBox="0 0 10 10" refX="9" refY="5" markerWidth="6" markerHeight="6" orient="auto-start-reverse">
    <path d="M 0 1 L 9 5 L 0 9 z" fill="context-stroke"/>
  </marker>
  <marker id="arrowv" viewBox="0 0 10 10" refX="9" refY="5" markerWidth="6" markerHeight="6" orient="auto-start-reverse">
    <path d="M 0 1 L 9 5 L 0 9 z" fill="context-stroke"/>
  </marker>
  <marker id="arrowr" viewBox="0 0 10 10" refX="9" refY="5" markerWidth="6" markerHeight="6" orient="auto-start-reverse">
    <path d="M 0 1 L 9 5 L 0 9 z" fill="context-stroke"/>
  </marker>
  <filter id="soft" x="-8%" y="-14%" width="116%" height="132%">
    <feDropShadow dx="0" dy="2" stdDeviation="3" flood-color="#0f1e3d" flood-opacity="0.07"/>
  </filter>
</defs>
<rect width="1600" height="900" fill="#ffffff"/>
<rect x="0" y="0" width="1600" height="6" fill="#0f1e3d"/>
<text x="800.0" y="56" font-family="Helvetica Neue, Helvetica, Arial, sans-serif" font-size="33" font-weight="bold" fill="#0f1e3d" text-anchor="middle" letter-spacing="-0.4">One workspace. Three clouds. No public path.</text><text x="800.0" y="84" font-family="Helvetica Neue, Helvetica, Arial, sans-serif" font-size="13" font-weight="normal" fill="#9aa3b2" text-anchor="middle">There is no internet-cloud glyph anywhere in this picture. That absence is the entire point.</text><rect x="40" y="368" width="176" height="200" rx="10" fill="#fdecea" stroke="#ff3621" stroke-width="2" filter="url(#soft)"/><text x="128.0" y="438.0" font-family="Helvetica Neue, Helvetica, Arial, sans-serif" font-size="15" font-weight="bold" fill="#1f2a44" text-anchor="middle">Databricks</text><text x="128.0" y="456.0" font-family="Helvetica Neue, Helvetica, Arial, sans-serif" font-size="11" font-weight="normal" fill="#6b7280" text-anchor="middle">Serverless</text><text x="128.0" y="470.0" font-family="Helvetica Neue, Helvetica, Arial, sans-serif" font-size="11" font-weight="normal" fill="#6b7280" text-anchor="middle">Workspace</text><text x="128.0" y="484.0" font-family="Helvetica Neue, Helvetica, Arial, sans-serif" font-size="11" font-weight="normal" fill="#6b7280" text-anchor="middle"></text><text x="128.0" y="498.0" font-family="Helvetica Neue, Helvetica, Arial, sans-serif" font-size="11" font-weight="normal" fill="#6b7280" text-anchor="middle">Unity Catalog ·</text><text x="128.0" y="512.0" font-family="Helvetica Neue, Helvetica, Arial, sans-serif" font-size="11" font-weight="normal" fill="#6b7280" text-anchor="middle">runs in AWS</text><rect x="26.60000000000001" y="587" width="202.79999999999998" height="18" rx="9" fill="#fbd7d2"/><text x="128" y="599.5" font-family="Helvetica Neue, Helvetica, Arial, sans-serif" font-size="9" font-weight="bold" fill="#ff3621" text-anchor="middle">NCC — Network Connectivity Config</text><rect x="238" y="176" width="120" height="570" rx="14" fill="#f1ecfe" stroke="#7c3aed" stroke-width="1.5" opacity="0.95"/><text x="298" y="200" font-family="Helvetica Neue, Helvetica, Arial, sans-serif" font-size="12" font-weight="bold" fill="#7c3aed" text-anchor="middle">AWS</text><text x="298" y="217" font-family="Helvetica Neue, Helvetica, Arial, sans-serif" font-size="12" font-weight="bold" fill="#7c3aed" text-anchor="middle">PrivateLink</text><rect x="376" y="202" width="1180" height="156" rx="14" fill="#fdf0e4" stroke="#ec7211" stroke-width="1.5" opacity="0.95"/><text x="394" y="228" font-family="Helvetica Neue, Helvetica, Arial, sans-serif" font-size="13" font-weight="bold" fill="#ec7211" text-anchor="start">AWS</text><text x="1538" y="228" font-family="Helvetica Neue, Helvetica, Arial, sans-serif" font-size="10.5" font-weight="bold" fill="#ec7211" text-anchor="end">VPC 10.40.0.0/16 · no Internet Gateway</text><path d="M 216 468 H 228 V 288 H 232" fill="none" stroke="#16a34a" stroke-width="2" marker-end="url(#arrowg)"/><rect x="250" y="262" width="96" height="52" rx="10" fill="#ffffff" stroke="#7c3aed" stroke-width="1.5" filter="url(#soft)"/><text x="298.0" y="293.0" font-family="Helvetica Neue, Helvetica, Arial, sans-serif" font-size="11" font-weight="bold" fill="#1f2a44" text-anchor="middle">PrivateLink</text><line x1="350" y1="288" x2="396" y2="288" stroke="#16a34a" stroke-width="2" marker-end="url(#arrowg)"/><circle cx="373" cy="288" r="11" fill="#ffffff"/><path d="M 369 286 v-3.2 a4 4 0 0 1 8 0 v3.2" fill="none" stroke="#16a34a" stroke-width="1.9"/><rect x="366.5" y="286" width="13" height="10" rx="2" fill="#16a34a"/><rect x="404" y="246" width="160" height="84" rx="10" fill="#ffffff" stroke="#ec7211" stroke-width="1.5" filter="url(#soft)"/><text x="484.0" y="286.0" font-family="Helvetica Neue, Helvetica, Arial, sans-serif" font-size="12" font-weight="bold" fill="#1f2a44" text-anchor="middle">Internal NLB</text><text x="484.0" y="304.0" font-family="Helvetica Neue, Helvetica, Arial, sans-serif" font-size="11" font-weight="normal" fill="#6b7280" text-anchor="middle">:5432</text><line x1="568" y1="288" x2="592" y2="288" stroke="#16a34a" stroke-width="2" marker-end="url(#arrowg)"/><circle cx="580" cy="288" r="11" fill="#ffffff"/><path d="M 576 286 v-3.2 a4 4 0 0 1 8 0 v3.2" fill="none" stroke="#16a34a" stroke-width="1.9"/><rect x="573.5" y="286" width="13" height="10" rx="2" fill="#16a34a"/><rect x="596" y="246" width="160" height="84" rx="10" fill="#ffffff" stroke="#ec7211" stroke-width="1.5" filter="url(#soft)"/><text x="676.0" y="286.0" font-family="Helvetica Neue, Helvetica, Arial, sans-serif" font-size="12" font-weight="bold" fill="#1f2a44" text-anchor="middle">Fargate</text><text x="676.0" y="304.0" font-family="Helvetica Neue, Helvetica, Arial, sans-serif" font-size="11" font-weight="normal" fill="#6b7280" text-anchor="middle">pgbouncer</text><line x1="760" y1="288" x2="784" y2="288" stroke="#16a34a" stroke-width="2" marker-end="url(#arrowg)"/><circle cx="772" cy="288" r="11" fill="#ffffff"/><path d="M 768 286 v-3.2 a4 4 0 0 1 8 0 v3.2" fill="none" stroke="#16a34a" stroke-width="1.9"/><rect x="765.5" y="286" width="13" height="10" rx="2" fill="#16a34a"/><rect x="788" y="246" width="160" height="84" rx="10" fill="#ffffff" stroke="#ec7211" stroke-width="1.5" filter="url(#soft)"/><text x="868.0" y="286.0" font-family="Helvetica Neue, Helvetica, Arial, sans-serif" font-size="12" font-weight="bold" fill="#1f2a44" text-anchor="middle">RDS Proxy</text><text x="868.0" y="304.0" font-family="Helvetica Neue, Helvetica, Arial, sans-serif" font-size="11" font-weight="normal" fill="#6b7280" text-anchor="middle">require_tls</text><line x1="954" y1="288" x2="1152" y2="288" stroke="#16a34a" stroke-width="2" marker-end="url(#arrowg)"/><circle cx="1054" cy="288" r="11" fill="#ffffff"/><path d="M 1050 286 v-3.2 a4 4 0 0 1 8 0 v3.2" fill="none" stroke="#16a34a" stroke-width="1.9"/><rect x="1047.5" y="286" width="13" height="10" rx="2" fill="#16a34a"/><rect x="1160" y="242" width="388" height="92" rx="10" fill="#ffffff" stroke="#ec7211" stroke-width="2" filter="url(#soft)"/><text x="1354.0" y="286.0" font-family="Helvetica Neue, Helvetica, Arial, sans-serif" font-size="14" font-weight="bold" fill="#1f2a44" text-anchor="middle">Amazon RDS PostgreSQL</text><text x="1354.0" y="304.0" font-family="Helvetica Neue, Helvetica, Arial, sans-serif" font-size="11" font-weight="normal" fill="#6b7280" text-anchor="middle">publicly_accessible = false</text><path d="M 1174 261 a 13.0 7 0 0 1 26 0 v 8 a 13.0 7 0 0 1 -26 0 Z" fill="#ffffff" stroke="#ec7211" stroke-width="2"/><path d="M 1174 261 a 13.0 7 0 0 0 26 0" fill="none" stroke="#ec7211" stroke-width="2"/><path d="M 1526 260 v-3.2 a4 4 0 0 1 8 0 v3.2" fill="none" stroke="#16a34a" stroke-width="1.9"/><rect x="1523.5" y="260" width="13" height="10" rx="2" fill="#16a34a"/><rect x="376" y="392" width="1180" height="156" rx="14" fill="#e8f2fc" stroke="#0078d4" stroke-width="1.5" opacity="0.95"/><text x="394" y="418" font-family="Helvetica Neue, Helvetica, Arial, sans-serif" font-size="13" font-weight="bold" fill="#0078d4" text-anchor="start">Azure</text><text x="1538" y="418" font-family="Helvetica Neue, Helvetica, Arial, sans-serif" font-size="10.5" font-weight="bold" fill="#0078d4" text-anchor="end">AWS transit VPC 10.10.0.0/16 → Azure VNet</text><path d="M 216 468 H 228 V 478 H 232" fill="none" stroke="#16a34a" stroke-width="2" marker-end="url(#arrowg)"/><rect x="250" y="452" width="96" height="52" rx="10" fill="#ffffff" stroke="#7c3aed" stroke-width="1.5" filter="url(#soft)"/><text x="298.0" y="483.0" font-family="Helvetica Neue, Helvetica, Arial, sans-serif" font-size="11" font-weight="bold" fill="#1f2a44" text-anchor="middle">PrivateLink</text><line x1="350" y1="478" x2="396" y2="478" stroke="#16a34a" stroke-width="2" marker-end="url(#arrowg)"/><circle cx="373" cy="478" r="11" fill="#ffffff"/><path d="M 369 476 v-3.2 a4 4 0 0 1 8 0 v3.2" fill="none" stroke="#16a34a" stroke-width="1.9"/><rect x="366.5" y="476" width="13" height="10" rx="2" fill="#16a34a"/><rect x="404" y="436" width="160" height="84" rx="10" fill="#ffffff" stroke="#0078d4" stroke-width="1.5" filter="url(#soft)"/><text x="484.0" y="476.0" font-family="Helvetica Neue, Helvetica, Arial, sans-serif" font-size="12" font-weight="bold" fill="#1f2a44" text-anchor="middle">Internal NLB</text><text x="484.0" y="494.0" font-family="Helvetica Neue, Helvetica, Arial, sans-serif" font-size="11" font-weight="normal" fill="#6b7280" text-anchor="middle">:1433</text><line x1="568" y1="478" x2="592" y2="478" stroke="#16a34a" stroke-width="2" marker-end="url(#arrowg)"/><circle cx="580" cy="478" r="11" fill="#ffffff"/><path d="M 576 476 v-3.2 a4 4 0 0 1 8 0 v3.2" fill="none" stroke="#16a34a" stroke-width="1.9"/><rect x="573.5" y="476" width="13" height="10" rx="2" fill="#16a34a"/><rect x="596" y="436" width="160" height="84" rx="10" fill="#ffffff" stroke="#0078d4" stroke-width="1.5" filter="url(#soft)"/><text x="676.0" y="476.0" font-family="Helvetica Neue, Helvetica, Arial, sans-serif" font-size="12" font-weight="bold" fill="#1f2a44" text-anchor="middle">Fargate</text><text x="676.0" y="494.0" font-family="Helvetica Neue, Helvetica, Arial, sans-serif" font-size="11" font-weight="normal" fill="#6b7280" text-anchor="middle">HAProxy</text><line x1="760" y1="478" x2="786" y2="478" stroke="#16a34a" stroke-width="2" marker-end="url(#arrowg)"/><rect x="790" y="465.0" width="128" height="26" rx="13.0" fill="#0078d4" opacity="0.16"/><rect x="790" y="465.0" width="128" height="26" rx="13.0" fill="none" stroke="#0078d4" stroke-width="2"/><ellipse cx="918" cy="478" rx="4.5" ry="13.0" fill="none" stroke="#0078d4" stroke-width="2" opacity="0.65"/><path d="M 850.0 475 v-3.2 a4 4 0 0 1 8 0 v3.2" fill="none" stroke="#16a34a" stroke-width="1.9"/><rect x="847.5" y="475" width="13" height="10" rx="2" fill="#16a34a"/><text x="854.0" y="508.0" font-family="Helvetica Neue, Helvetica, Arial, sans-serif" font-size="11" font-weight="bold" fill="#0078d4" text-anchor="middle">IPsec VPN</text><line x1="922" y1="478" x2="946" y2="478" stroke="#16a34a" stroke-width="2" marker-end="url(#arrowg)"/><rect x="950" y="436" width="160" height="84" rx="10" fill="#ffffff" stroke="#0078d4" stroke-width="1.5" filter="url(#soft)"/><text x="1030.0" y="476.0" font-family="Helvetica Neue, Helvetica, Arial, sans-serif" font-size="12" font-weight="bold" fill="#1f2a44" text-anchor="middle">Azure Private</text><text x="1030.0" y="494.0" font-family="Helvetica Neue, Helvetica, Arial, sans-serif" font-size="11" font-weight="normal" fill="#6b7280" text-anchor="middle">Endpoint</text><line x1="1114" y1="478" x2="1152" y2="478" stroke="#16a34a" stroke-width="2" marker-end="url(#arrowg)"/><circle cx="1133" cy="478" r="11" fill="#ffffff"/><path d="M 1129 476 v-3.2 a4 4 0 0 1 8 0 v3.2" fill="none" stroke="#16a34a" stroke-width="1.9"/><rect x="1126.5" y="476" width="13" height="10" rx="2" fill="#16a34a"/><rect x="1160" y="432" width="388" height="92" rx="10" fill="#ffffff" stroke="#0078d4" stroke-width="2" filter="url(#soft)"/><text x="1354.0" y="476.0" font-family="Helvetica Neue, Helvetica, Arial, sans-serif" font-size="14" font-weight="bold" fill="#1f2a44" text-anchor="middle">Azure SQL</text><text x="1354.0" y="494.0" font-family="Helvetica Neue, Helvetica, Arial, sans-serif" font-size="11" font-weight="normal" fill="#6b7280" text-anchor="middle">publicNetworkAccess = Disabled</text><path d="M 1174 451 a 13.0 7 0 0 1 26 0 v 8 a 13.0 7 0 0 1 -26 0 Z" fill="#ffffff" stroke="#0078d4" stroke-width="2"/><path d="M 1174 451 a 13.0 7 0 0 0 26 0" fill="none" stroke="#0078d4" stroke-width="2"/><path d="M 1526 450 v-3.2 a4 4 0 0 1 8 0 v3.2" fill="none" stroke="#16a34a" stroke-width="1.9"/><rect x="1523.5" y="450" width="13" height="10" rx="2" fill="#16a34a"/><rect x="376" y="572" width="1180" height="156" rx="14" fill="#e8f5ee" stroke="#1a8b4c" stroke-width="1.5" opacity="0.95"/><text x="394" y="598" font-family="Helvetica Neue, Helvetica, Arial, sans-serif" font-size="13" font-weight="bold" fill="#1a8b4c" text-anchor="start">GCP</text><text x="1538" y="598" font-family="Helvetica Neue, Helvetica, Arial, sans-serif" font-size="10.5" font-weight="bold" fill="#1a8b4c" text-anchor="end">AWS transit VPC 10.11.0.0/16 → GCP VPC</text><path d="M 216 468 H 228 V 658 H 232" fill="none" stroke="#16a34a" stroke-width="2" marker-end="url(#arrowg)"/><rect x="250" y="632" width="96" height="52" rx="10" fill="#ffffff" stroke="#7c3aed" stroke-width="1.5" filter="url(#soft)"/><text x="298.0" y="663.0" font-family="Helvetica Neue, Helvetica, Arial, sans-serif" font-size="11" font-weight="bold" fill="#1f2a44" text-anchor="middle">PrivateLink</text><line x1="350" y1="658" x2="396" y2="658" stroke="#16a34a" stroke-width="2" marker-end="url(#arrowg)"/><circle cx="373" cy="658" r="11" fill="#ffffff"/><path d="M 369 656 v-3.2 a4 4 0 0 1 8 0 v3.2" fill="none" stroke="#16a34a" stroke-width="1.9"/><rect x="366.5" y="656" width="13" height="10" rx="2" fill="#16a34a"/><rect x="404" y="616" width="160" height="84" rx="10" fill="#ffffff" stroke="#1a8b4c" stroke-width="1.5" filter="url(#soft)"/><text x="484.0" y="656.0" font-family="Helvetica Neue, Helvetica, Arial, sans-serif" font-size="12" font-weight="bold" fill="#1f2a44" text-anchor="middle">Internal NLB</text><text x="484.0" y="674.0" font-family="Helvetica Neue, Helvetica, Arial, sans-serif" font-size="11" font-weight="normal" fill="#6b7280" text-anchor="middle">:443</text><line x1="568" y1="658" x2="592" y2="658" stroke="#16a34a" stroke-width="2" marker-end="url(#arrowg)"/><circle cx="580" cy="658" r="11" fill="#ffffff"/><path d="M 576 656 v-3.2 a4 4 0 0 1 8 0 v3.2" fill="none" stroke="#16a34a" stroke-width="1.9"/><rect x="573.5" y="656" width="13" height="10" rx="2" fill="#16a34a"/><rect x="596" y="616" width="160" height="84" rx="10" fill="#ffffff" stroke="#1a8b4c" stroke-width="1.5" filter="url(#soft)"/><text x="676.0" y="656.0" font-family="Helvetica Neue, Helvetica, Arial, sans-serif" font-size="12" font-weight="bold" fill="#1f2a44" text-anchor="middle">Fargate</text><text x="676.0" y="674.0" font-family="Helvetica Neue, Helvetica, Arial, sans-serif" font-size="11" font-weight="normal" fill="#6b7280" text-anchor="middle">HAProxy :8443</text><line x1="760" y1="658" x2="786" y2="658" stroke="#16a34a" stroke-width="2" marker-end="url(#arrowg)"/><rect x="790" y="645.0" width="128" height="26" rx="13.0" fill="#1a8b4c" opacity="0.16"/><rect x="790" y="645.0" width="128" height="26" rx="13.0" fill="none" stroke="#1a8b4c" stroke-width="2"/><ellipse cx="918" cy="658" rx="4.5" ry="13.0" fill="none" stroke="#1a8b4c" stroke-width="2" opacity="0.65"/><path d="M 850.0 655 v-3.2 a4 4 0 0 1 8 0 v3.2" fill="none" stroke="#16a34a" stroke-width="1.9"/><rect x="847.5" y="655" width="13" height="10" rx="2" fill="#16a34a"/><text x="854.0" y="688.0" font-family="Helvetica Neue, Helvetica, Arial, sans-serif" font-size="11" font-weight="bold" fill="#1a8b4c" text-anchor="middle">IPsec VPN + BGP</text><line x1="922" y1="658" x2="946" y2="658" stroke="#16a34a" stroke-width="2" marker-end="url(#arrowg)"/><rect x="950" y="616" width="160" height="84" rx="10" fill="#ffffff" stroke="#1a8b4c" stroke-width="1.5" filter="url(#soft)"/><text x="1030.0" y="656.0" font-family="Helvetica Neue, Helvetica, Arial, sans-serif" font-size="11" font-weight="bold" fill="#1f2a44" text-anchor="middle">private.googleapis</text><text x="1030.0" y="674.0" font-family="Helvetica Neue, Helvetica, Arial, sans-serif" font-size="11" font-weight="normal" fill="#6b7280" text-anchor="middle">199.36.153.8/30</text><line x1="1114" y1="658" x2="1152" y2="658" stroke="#16a34a" stroke-width="2" marker-end="url(#arrowg)"/><circle cx="1133" cy="658" r="11" fill="#ffffff"/><path d="M 1129 656 v-3.2 a4 4 0 0 1 8 0 v3.2" fill="none" stroke="#16a34a" stroke-width="1.9"/><rect x="1126.5" y="656" width="13" height="10" rx="2" fill="#16a34a"/><rect x="1160" y="612" width="388" height="92" rx="10" fill="#ffffff" stroke="#1a8b4c" stroke-width="2" filter="url(#soft)"/><text x="1354.0" y="656.0" font-family="Helvetica Neue, Helvetica, Arial, sans-serif" font-size="14" font-weight="bold" fill="#1f2a44" text-anchor="middle">BigQuery</text><text x="1354.0" y="674.0" font-family="Helvetica Neue, Helvetica, Arial, sans-serif" font-size="11" font-weight="normal" fill="#6b7280" text-anchor="middle">reached without touching the internet</text><path d="M 1174 631 a 13.0 7 0 0 1 26 0 v 8 a 13.0 7 0 0 1 -26 0 Z" fill="#ffffff" stroke="#1a8b4c" stroke-width="2"/><path d="M 1174 631 a 13.0 7 0 0 0 26 0" fill="none" stroke="#1a8b4c" stroke-width="2"/><path d="M 1526 630 v-3.2 a4 4 0 0 1 8 0 v3.2" fill="none" stroke="#16a34a" stroke-width="1.9"/><rect x="1523.5" y="630" width="13" height="10" rx="2" fill="#16a34a"/><line x1="854" y1="392" x2="854" y2="728" stroke="#9aa3b2" stroke-width="1.6" stroke-dasharray="7 6"/><text x="854" y="384" font-family="Helvetica Neue, Helvetica, Arial, sans-serif" font-size="11" font-weight="bold" fill="#9aa3b2" text-anchor="middle">cloud boundary</text><rect x="340.0" y="790" width="920" height="34" rx="17" fill="#0f1e3d"/><text x="800.0" y="812" font-family="Helvetica Neue, Helvetica, Arial, sans-serif" font-size="12.5" font-weight="bold" fill="#ffffff" text-anchor="middle">3 NCC rules   ·   3 PrivateLink services   ·   2 IPsec tunnels   ·   0 public endpoints</text>
</svg>
